<?xml version="1.0" standalone="no"?>
<!DOCTYPE svg PUBLIC "-//W3C//DTD SVG 20010904//EN"
 "http://www.w3.org/TR/2001/REC-SVG-20010904/DTD/svg10.dtd">
<svg version="1.0" xmlns="http://www.w3.org/2000/svg"
 width="300.000000pt" height="300.000000pt" viewBox="0 0 300.000000 300.000000"
 preserveAspectRatio="xMidYMid meet">
<metadata>
Created by potrace 1.10, written by Peter Selinger 2001-2011
</metadata>
<g transform="translate(0.000000,300.000000) scale(0.100000,-0.100000)"
fill="#000000" stroke="none">
<path d="M768 1834 c-15 -8 -32 -23 -38 -34 -13 -25 -13 -93 1 -124 12 -25 63
-56 94 -56 25 0 73 28 85 49 15 28 -18 37 -42 11 -22 -24 -55 -26 -86 -4 -29
20 -31 93 -4 117 25 23 79 22 93 -2 7 -11 19 -16 31 -13 25 6 23 16 -13 46
-35 30 -79 33 -121 10z"/>
<path d="M1578 1837 c-20 -16 -31 -57 -21 -74 5 -6 28 -22 53 -35 30 -16 45
-30 45 -43 0 -29 -48 -33 -68 -5 -16 23 -52 17 -43 -7 3 -8 6 -16 6 -19 0 -2
14 -11 31 -19 39 -21 84 -11 105 21 26 39 11 70 -46 99 -54 27 -60 39 -31 55
15 7 23 6 34 -5 12 -11 18 -12 32 -1 17 12 16 14 -6 29 -28 20 -67 21 -91 4z"/>
<path d="M1758 1836 c-10 -7 -18 -23 -18 -35 0 -12 -6 -21 -15 -21 -8 0 -15
-7 -15 -15 0 -8 7 -15 15 -15 12 0 15 -13 15 -55 0 -49 3 -57 24 -67 14 -6 32
-8 40 -5 24 9 19 35 -6 39 -19 2 -24 10 -26 46 -3 39 -1 42 22 42 16 0 26 6
26 15 0 9 -9 15 -24 15 -23 0 -24 3 -19 35 6 39 5 40 -19 21z"/>
<path d="M971 1775 c-28 -13 -31 -17 -21 -30 9 -11 16 -12 26 -4 16 13 56 8
62 -8 2 -9 -7 -13 -28 -13 -48 0 -70 -16 -70 -51 0 -38 37 -58 75 -41 16 8 26
8 31 1 3 -5 11 -8 17 -6 16 5 10 128 -6 143 -21 21 -51 23 -86 9z m63 -99 c-7
-19 -41 -27 -54 -12 -13 17 -3 26 31 26 20 0 27 -4 23 -14z"/>
<path d="M1172 1781 c-7 -4 -23 -6 -36 -4 -22 4 -22 2 -22 -74 1 -66 4 -78 19
-81 14 -3 17 5 17 51 0 57 16 84 45 73 11 -4 15 -21 15 -66 0 -53 2 -60 20
-60 16 0 19 8 22 63 3 59 4 62 28 62 24 0 25 -3 28 -63 3 -53 6 -63 20 -60 37
7 26 128 -13 154 -21 14 -28 14 -53 1 -24 -12 -32 -12 -47 0 -22 15 -25 16
-43 4z"/>
<path d="M1425 1780 c-32 -12 -47 -36 -48 -76 -1 -49 41 -89 87 -80 59 12 62
49 3 39 -23 -3 -37 0 -46 11 -12 14 -8 16 43 16 52 0 56 2 56 24 0 47 -53 83
-95 66z m55 -45 c11 -13 7 -15 -30 -15 -37 0 -41 2 -30 15 7 8 20 15 30 15 10
0 23 -7 30 -15z"/>
<path d="M1882 1774 c-52 -21 -60 -92 -16 -131 33 -30 69 -29 99 2 65 64 1
165 -83 129z m67 -46 c13 -36 -2 -63 -34 -63 -32 0 -47 27 -34 63 6 15 17 22
34 22 17 0 28 -7 34 -22z"/>
<path d="M2081 1774 c-12 -9 -21 -11 -21 -5 0 6 -8 11 -17 11 -16 0 -18 -10
-17 -77 1 -64 4 -79 18 -81 13 -3 16 6 16 47 0 52 21 87 45 77 11 -4 25 13 25
29 0 12 -31 11 -49 -1z"/>
<path d="M2184 1776 c-34 -15 -44 -33 -44 -75 0 -58 56 -93 112 -70 40 17 29
34 -22 34 -26 0 -45 5 -47 13 -3 9 11 12 51 12 60 0 66 7 45 53 -9 19 -49 49
-62 47 -1 -1 -16 -7 -33 -14z m64 -43 c2 -9 -8 -13 -32 -13 -34 0 -44 8 -29
24 11 11 56 2 61 -11z"/>
</g>
</svg>
